<?xml version="1.0" encoding="utf-8"?>
<!-- Generator: Adobe Illustrator 23.0.6, SVG Export Plug-In . SVG Version: 6.00 Build 0)  -->
<svg version="1.1" id="Layer_1" xmlns="http://www.w3.org/2000/svg" xmlns:xlink="http://www.w3.org/1999/xlink" x="0px" y="0px"
	 viewBox="0 0 512 512" style="enable-background:new 0 0 512 512;" xml:space="preserve">
<style type="text/css">
	.st0{fill:#FFFFFF;}
</style>
<g>
	<g>
		<path class="st0" d="M500.3,370.7h-71.2v-66.5h71.2c6.4,0,11.7-5.2,11.7-11.7v-73.1c0-6.4-5.2-11.7-11.7-11.7h-71.2V138
			c0-6.4-5.2-11.7-11.7-11.7h-71.1V56.5c0-6.4-5.2-11.7-11.7-11.7h-39.1c-4.1,0-7.5,3.4-7.5,7.5s3.4,7.5,7.5,7.5h35.7v66.5H256
			h-75.3V59.8h84.7c4.1,0,7.5-3.4,7.5-7.5s-3.4-7.5-7.5-7.5h-92.2h0H11.7C5.3,44.8,0,50,0,56.5V133c0,0.3,0,0.5,0,0.8v81.5
			c0,0.3,0,0.5,0,0.8V296c0,0.3,0,0.5,0,0.8v26.6c0,4.1,3.4,7.5,7.5,7.5s7.5-3.4,7.5-7.5v-19.1h67.8v66.5H15v-17.3
			c0-4.1-3.4-7.5-7.5-7.5S0,349.3,0,353.4v24.8c0,0.3,0,0.5,0,0.8v76.5c0,6.4,5.2,11.7,11.7,11.7h161.5h0h165.6h0h161.5
			c6.4,0,11.7-5.2,11.7-11.7v-73.1C512,376,506.8,370.7,500.3,370.7z M421.7,222.8H497v66.5h-75.3h-75.3v-66.5H421.7z M263.5,141.3
			h75.4h75.3v66.5h-75.3h0h-75.3V141.3z M331.3,222.8v66.5H256h0h-75.3v-66.5H256H331.3z M248.5,141.3v66.5h-75.3h0H97.8v-66.5
			H248.5z M15,59.8h150.7v66.5H90.3H15V59.8z M15,141.3h67.8v66.5H15V141.3z M15,289.2v-66.5h75.3h75.4v66.5H90.3h0H15z
			 M165.7,452.2H15v-66.5h75.3h0h75.4V452.2z M173.2,370.7L173.2,370.7H97.8v-66.5h75.4h0h75.3v66.5H173.2z M331.3,452.2H180.7
			v-66.5H256h0h75.3V452.2z M338.9,370.7L338.9,370.7h-75.4v-66.5h75.3h0h75.3v66.5H338.9z M497,452.2H346.4v-66.5h75.3H497V452.2z"
			/>
	</g>
</g>
</svg>
