<?xml version="1.0" encoding="utf-8"?>
<!-- Generator: Adobe Illustrator 23.0.6, SVG Export Plug-In . SVG Version: 6.00 Build 0)  -->
<svg version="1.1" id="Capa_1" xmlns="http://www.w3.org/2000/svg" xmlns:xlink="http://www.w3.org/1999/xlink" x="0px" y="0px"
	 viewBox="0 0 416 416" style="enable-background:new 0 0 416 416;" xml:space="preserve">
<style type="text/css">
	.st0{fill:#213463;}
	.st1{fill:#E13F20;}
</style>
<path class="st0" d="M408.2,352.2V119.8c4.3-0.1,7.8-3.6,7.8-8s-3.6-8-8-8h-7.8h-24.4v-32c0-4.4-3.6-8-8-8H250.2
	c-11.3-9.9-26.1-16-42.2-16s-31,6-42.2,16H48.2c-4.4,0-8,3.6-8,8v32H15.8H8c-4.4,0-8,3.6-8,8s3.5,7.9,7.8,8v232.4
	c-4.3,0.1-7.8,3.6-7.8,8s3.6,8,8,8h400c4.4,0,8-3.6,8-8C416,355.8,412.5,352.3,408.2,352.2z M359.8,79.8v24h-88.2
	c-1.1-8.7-3.9-16.8-8.1-24H359.8z M208,63.8c23.7,0,43.5,17.3,47.4,40h-94.7C164.5,81.1,184.3,63.8,208,63.8z M56.2,79.8h96.4
	c-4.2,7.2-7,15.3-8.1,24H56.2V79.8z M23.8,119.8h127c0.4,0.1,0.8,0.1,1.2,0.1s0.8,0,1.2-0.1H263c0.4,0.1,0.8,0.1,1.2,0.1
	s0.8,0,1.2-0.1h127v15.7H23.8V119.8z M392.2,352.2H344h-16h-47.7h-16h-16.5h-16l0,0h-47.7h-16h-16.5h-16l0,0H88H72H23.8V151.4h368.3
	v200.8H392.2z"/>
<path class="st1" d="M304.2,175.6c-22,0-39.8,17.9-39.8,39.8v136.8h16V215.4c0-13.1,10.7-23.8,23.8-23.8c13.1,0,23.8,10.7,23.8,23.8
	v136.8h16V215.4C344,193.5,326.1,175.6,304.2,175.6z"/>
<path class="st1" d="M111.8,175.6c-22,0-39.8,17.9-39.8,39.8v136.8h16V215.4c0-13.1,10.7-23.8,23.8-23.8s23.8,10.7,23.8,23.8v136.8
	l0,0h16V215.4C151.7,193.5,133.8,175.6,111.8,175.6z"/>
<path class="st1" d="M208,175.6c-22,0-39.8,17.9-39.8,39.8v136.8h16V215.4c0-13.1,10.7-23.8,23.8-23.8s23.8,10.7,23.8,23.8v136.8
	l0,0h16V215.4C247.8,193.5,230,175.6,208,175.6z"/>
</svg>
