<?xml version="1.0" encoding="utf-8"?>
<!-- Generator: Adobe Illustrator 23.0.6, SVG Export Plug-In . SVG Version: 6.00 Build 0)  -->
<svg version="1.1" id="Layer_1" xmlns="http://www.w3.org/2000/svg" xmlns:xlink="http://www.w3.org/1999/xlink" x="0px" y="0px"
	 viewBox="0 0 512 512" style="enable-background:new 0 0 512 512;" xml:space="preserve">
<style type="text/css">
	.st0{fill:#E13F20;}
	.st1{fill:#213463;}
</style>
<g>
	<g>
		<path class="st0" d="M179.6,295.3c-0.1-0.7-0.3-1.4-0.6-2s-0.6-1.3-1-1.9c-0.4-0.6-0.8-1.1-1.3-1.6s-1.1-0.9-1.6-1.3
			c-0.6-0.4-1.2-0.7-1.9-1s-1.3-0.5-2-0.6c-1.4-0.3-2.8-0.3-4.2,0c-0.7,0.1-1.4,0.3-2,0.6s-1.3,0.6-1.9,1c-0.6,0.4-1.1,0.8-1.6,1.3
			s-0.9,1.1-1.3,1.6c-0.4,0.6-0.7,1.2-1,1.9s-0.5,1.3-0.6,2c-0.1,0.7-0.2,1.4-0.2,2.1c0,0.7,0.1,1.4,0.2,2.1c0.1,0.7,0.3,1.4,0.6,2
			s0.6,1.3,1,1.9c0.4,0.6,0.8,1.1,1.3,1.6s1.1,0.9,1.6,1.3c0.6,0.4,1.2,0.7,1.9,1s1.3,0.5,2,0.6c0.7,0.1,1.4,0.2,2.1,0.2
			c0.7,0,1.4-0.1,2.1-0.2c0.7-0.1,1.4-0.3,2-0.6s1.3-0.6,1.9-1c0.6-0.4,1.1-0.8,1.6-1.3s0.9-1.1,1.3-1.6c0.4-0.6,0.7-1.2,1-1.9
			s0.5-1.3,0.6-2c0.1-0.7,0.2-1.4,0.2-2.1C179.9,296.7,179.8,296,179.6,295.3z"/>
	</g>
</g>
<g>
	<g>
		<path class="st0" d="M437.4,296.9c-0.1-0.7-0.3-1.4-0.6-2c-0.3-0.6-0.6-1.3-1-1.9c-0.4-0.6-0.8-1.1-1.3-1.6s-1-0.9-1.6-1.3
			c-0.6-0.4-1.2-0.7-1.9-1c-0.6-0.3-1.3-0.5-2-0.6c-1.4-0.3-2.8-0.3-4.2,0c-0.7,0.1-1.4,0.3-2,0.6c-0.6,0.3-1.3,0.6-1.9,1
			c-0.6,0.4-1.1,0.9-1.6,1.3c-0.5,0.5-0.9,1-1.3,1.6c-0.4,0.6-0.7,1.2-1,1.9c-0.3,0.7-0.5,1.3-0.6,2s-0.2,1.4-0.2,2.1
			s0.1,1.4,0.2,2.1s0.3,1.4,0.6,2c0.3,0.7,0.6,1.3,1,1.9c0.4,0.6,0.9,1.1,1.3,1.6c0.5,0.5,1,0.9,1.6,1.3c0.6,0.4,1.2,0.7,1.9,1
			c0.7,0.3,1.3,0.5,2,0.6c0.7,0.1,1.4,0.2,2.1,0.2c0.7,0,1.4-0.1,2.1-0.2c0.7-0.1,1.4-0.3,2-0.6c0.7-0.3,1.3-0.6,1.9-1
			c0.6-0.4,1.1-0.8,1.6-1.3c2-2,3.2-4.8,3.2-7.6C437.6,298.3,437.5,297.6,437.4,296.9z"/>
	</g>
</g>
<path class="st0" d="M145.9,285.1c2.8,0,5.5-1.1,7.6-3.2c4.2-4.2,4.2-11,0-15.3l-81.9-81.9L56.4,200l81.9,81.9
	C140.4,284.1,143.2,285.1,145.9,285.1z"/>
<path class="st0" d="M403.7,286.6c2.8,0,5.5-1.1,7.6-3.2c4.2-4.2,4.2-11,0-15.3l-82.8-82.8l-15.3,15.3l82.8,82.8
	C398.2,285.6,400.9,286.6,403.7,286.6z"/>
<path class="st1" d="M495.5,286.5l-134-134l69.9-69.9c2-2,3.2-4.8,3.2-7.7c0-2.9-1.2-5.6-3.2-7.6L366.3,3.1
	c-4.2-4.2-11-4.1-15.2,0.1l-56.6,56.6L238,3.2c-2-2-4.8-3.2-7.6-3.2c-2.9,0-5.6,1.1-7.6,3.2L81,144.9l-64.5,64.5
	c-4.2,4.2-4.2,11,0,15.3l134.1,134.1l-69.9,69.9c-2,2-3.2,4.8-3.2,7.6s1.1,5.6,3.2,7.6l64.9,64.9c2.1,2.1,4.9,3.2,7.6,3.2
	s5.5-1.1,7.6-3.2l57-57L274,508c2,2,4.8,3.2,7.6,3.2s5.6-1.1,7.6-3.2l141.6-141.6l64.6-64.6C499.7,297.6,499.7,290.7,495.5,286.5z
	 M302.2,82.6C302.2,82.6,302.2,82.6,302.2,82.6L358.8,26l49.7,49l-69.9,69.9c0,0,0,0,0,0l-57,57l-49.4-49.4L302.2,82.6z M344.2,295
	l-48.9,48.9L238,286.7L168,216.7l48.9-48.9l57,57L344.2,295z M230.3,26L279.3,75l-33,33l-37,37l-56.5,56.5l-48.9-48.9L230.3,26z
	 M39.4,217l17-17l15.3-15.3l17-17l56.5,56.5c0,0,0,0,0,0l69.9,69.9l-17.2,17.2l-32,32L39.4,217z M210.2,429
	C210.2,429,210.2,429,210.2,429l-57,57l-49.7-49.7l93.8-93.8l33-33l45.6,45.6l4.1,4.1l-33,33L210.2,429z M281.7,485.1l-48.5-48.5
	l69.8-69.8l56.6-56.5l48.5,48.5L281.7,485.1z M423.2,343.5l-56.1-56.2l-70.2-70.2l16.5-16.5l15.3-15.3l17.7-17.7l126.4,126.4
	L423.2,343.5z"/>
</svg>
