<svg xmlns="http://www.w3.org/2000/svg" viewBox="0 0 213.19 581.45"><defs><style>.cls-1{fill:#fff;}</style></defs><title>heatblazer</title><g id="Layer_2" data-name="Layer 2"><g id="Layer_1-2" data-name="Layer 1"><path class="cls-1" d="M106.64,0A67.9,67.9,0,0,0,38.82,67.81V392.6a106.59,106.59,0,1,0,174.37,82.06,105.56,105.56,0,0,0-38.75-82.06V67.81A67.88,67.88,0,0,0,106.64,0Zm87.18,474.66A87.19,87.19,0,1,1,54.33,405a9.71,9.71,0,0,0,3.87-7.75V368.1H77.57V348.73H58.2V319.67H77.57V300.3H58.2V271.23H77.57V251.86H58.2V222.8H77.57V203.43H58.2V174.37H77.57V155H58.2V125.93H77.57V106.56H58.2V67.81a48.44,48.44,0,0,1,96.87,0V397.3a9.69,9.69,0,0,0,3.88,7.75A86.55,86.55,0,0,1,193.82,474.66Z"/><path class="cls-1" d="M116.32,427.2v-340H97v340a48.44,48.44,0,1,0,19.37,0Zm-9.68,76.52a29.06,29.06,0,1,1,29.06-29.06A29.06,29.06,0,0,1,106.64,503.72Z"/></g></g></svg>