<svg xmlns="http://www.w3.org/2000/svg" viewBox="0 0 80.6 69.64"><defs><style>.cls-1{fill:none;stroke:#38526d;stroke-miterlimit:10;stroke-width:0.6px;}</style></defs><title>honeycomb_1</title><g id="Layer_2" data-name="Layer 2"><g id="Layer_1-2" data-name="Layer 1"><polygon class="cls-1" points="40.3 23.44 40.3 34.99 50.3 40.76 60.3 34.99 60.3 23.44 50.3 17.67 40.3 23.44"/><polygon class="cls-1" points="0.3 23.44 0.3 34.99 10.3 40.76 20.3 34.99 20.3 23.44 10.3 17.67 0.3 23.44"/><polygon class="cls-1" points="20.3 23.44 20.3 34.99 30.3 40.76 40.3 34.99 40.3 23.44 30.3 17.67 20.3 23.44"/><polygon class="cls-1" points="10.3 6.12 10.3 17.67 20.3 23.44 30.3 17.67 30.3 6.12 20.3 0.34 10.3 6.12"/><polyline class="cls-1" points="0.3 0.34 10.3 6.12 10.3 17.66 0.3 23.44"/><polygon class="cls-1" points="60.3 23.44 60.3 34.99 70.3 40.76 80.3 34.99 80.3 23.44 70.3 17.67 60.3 23.44"/><polygon class="cls-1" points="50.3 6.12 50.3 17.67 60.3 23.44 70.3 17.67 70.3 6.12 60.3 0.34 50.3 6.12"/><polyline class="cls-1" points="80.3 23.44 70.3 17.66 70.3 6.12 80.3 0.34"/><polygon class="cls-1" points="30.3 6.12 30.3 17.67 40.3 23.44 50.3 17.67 50.3 6.12 40.3 0.34 30.3 6.12"/><polyline class="cls-1" points="20.3 69.64 20.3 58.09 10.3 52.32 0.3 58.09 0.3 69.64"/><polyline class="cls-1" points="20.3 69.64 20.3 58.09 30.3 52.32 40.3 58.09 40.3 69.64"/><polygon class="cls-1" points="10.3 40.77 10.3 52.31 20.3 58.09 30.3 52.31 30.3 40.77 20.3 34.99 10.3 40.77"/><polyline class="cls-1" points="40.3 69.64 40.3 58.09 50.3 52.32 60.3 58.09 60.3 69.64"/><polyline class="cls-1" points="80.3 69.64 80.3 58.09 70.3 52.32 60.3 58.09 60.3 69.64"/><polygon class="cls-1" points="50.3 40.77 50.3 52.31 60.3 58.09 70.3 52.31 70.3 40.77 60.3 34.99 50.3 40.77"/></g></g></svg>