<?xml version="1.0" encoding="utf-8"?>
<!-- Generator: Adobe Illustrator 23.0.6, SVG Export Plug-In . SVG Version: 6.00 Build 0)  -->
<svg version="1.1" id="Layer_1" xmlns="http://www.w3.org/2000/svg" xmlns:xlink="http://www.w3.org/1999/xlink" x="0px" y="0px"
	 viewBox="0 0 638 638" style="enable-background:new 0 0 638 638;" xml:space="preserve">
<style type="text/css">
	.st0{fill:#213463;}
	.st1{fill:#E13F20;}
</style>
<path class="st0" d="M435,105.2V0.4L224.6,105.6V0L3.7,116.3V638h631.1V0L435,105.2z M203.6,617H24.8V128.9l178.8-94.1V617z
	 M414,617H224.6V129.1L414,34.4V617z M613.8,617H435V128.9l178.8-94.1V617z"/>
<path class="st1" d="M108.9,301.4H45.8v-63.1h63.1V301.4z M66.9,280.4h21v-21h-21V280.4z"/>
<path class="st1" d="M182.6,301.4h-63.1v-63.1h63.1V301.4z M140.5,280.4h21v-21h-21V280.4z"/>
<path class="st1" d="M108.9,385.6H45.8v-63.1h63.1V385.6z M66.9,364.5h21v-21h-21V364.5z"/>
<path class="st1" d="M182.6,385.6h-63.1v-63.1h63.1V385.6z M140.5,364.5h21v-21h-21V364.5z"/>
<path class="st1" d="M108.9,469.7H45.8v-63.1h63.1V469.7z M66.9,448.7h21v-21h-21V448.7z"/>
<path class="st1" d="M182.6,469.7h-63.1v-63.1h63.1V469.7z M140.5,448.7h21v-21h-21V448.7z"/>
<path class="st1" d="M108.9,553.9H45.8v-63.1h63.1V553.9z M66.9,532.8h21v-21h-21V532.8z"/>
<path class="st1" d="M182.6,553.9h-63.1v-63.1h63.1V553.9z M140.5,532.8h21v-21h-21V532.8z"/>
<path class="st1" d="M308.8,301.4h-63.1v-63.1h63.1V301.4z M266.7,280.4h21v-21h-21V280.4z"/>
<path class="st1" d="M392.9,301.4h-63.1v-63.1h63.1V301.4z M350.9,280.4h21v-21h-21V280.4z"/>
<path class="st1" d="M308.8,385.6h-63.1v-63.1h63.1V385.6z M266.7,364.5h21v-21h-21V364.5z"/>
<path class="st1" d="M392.9,385.6h-63.1v-63.1h63.1V385.6z M350.9,364.5h21v-21h-21V364.5z"/>
<path class="st1" d="M308.8,469.7h-63.1v-63.1h63.1V469.7z M266.7,448.7h21v-21h-21V448.7z"/>
<path class="st1" d="M392.9,469.7h-63.1v-63.1h63.1V469.7z M350.9,448.7h21v-21h-21V448.7z"/>
<path class="st1" d="M308.8,553.9h-63.1v-63.1h63.1V553.9z M266.7,532.8h21v-21h-21V532.8z"/>
<path class="st1" d="M392.9,553.9h-63.1v-63.1h63.1V553.9z M350.9,532.8h21v-21h-21V532.8z"/>
<path class="st1" d="M519.1,301.4H456v-63.1h63.1V301.4z M477.1,280.4h21v-21h-21V280.4z"/>
<path class="st1" d="M592.8,301.4h-63.1v-63.1h63.1V301.4z M550.7,280.4h21v-21h-21V280.4z"/>
<path class="st1" d="M519.1,385.6H456v-63.1h63.1V385.6z M477.1,364.5h21v-21h-21V364.5z"/>
<path class="st1" d="M592.8,385.6h-63.1v-63.1h63.1V385.6z M550.7,364.5h21v-21h-21V364.5z"/>
<path class="st1" d="M519.1,469.7H456v-63.1h63.1V469.7z M477.1,448.7h21v-21h-21V448.7z"/>
<path class="st1" d="M592.8,469.7h-63.1v-63.1h63.1V469.7z M550.7,448.7h21v-21h-21V448.7z"/>
<path class="st1" d="M519.1,553.9H456v-63.1h63.1V553.9z M477.1,532.8h21v-21h-21V532.8z"/>
<path class="st1" d="M592.8,553.9h-63.1v-63.1h63.1V553.9z M550.7,532.8h21v-21h-21V532.8z"/>
</svg>
