<?xml version="1.0" encoding="utf-8"?>
<!-- Generator: Adobe Illustrator 23.0.6, SVG Export Plug-In . SVG Version: 6.00 Build 0)  -->
<svg version="1.1" id="Layer_1" xmlns="http://www.w3.org/2000/svg" xmlns:xlink="http://www.w3.org/1999/xlink" x="0px" y="0px"
	 viewBox="0 0 512 512" style="enable-background:new 0 0 512 512;" xml:space="preserve">
<style type="text/css">
	.st0{fill:#FFFFFF;}
</style>
<g>
	<g>
		<g>
			<path class="st0" d="M291.3,220.5c-0.1-0.3-0.3-0.6-0.4-1l-20-38.5c-2.2-4.2-7.4-5.9-11.6-3.7c-4.2,2.2-5.9,7.4-3.7,11.6
				l19.8,38.1c10.5,28.5,9.3,59.4-3.3,87c-12.7,27.8-35.4,49-64.1,59.7c-11.6,4.3-23.8,6.8-36.3,7.2c-12.4-0.4-24.6-2.8-36.3-7.2
				C106.8,363,84.1,341.8,71.4,314c-12.6-27.6-13.8-58.5-3.3-87L171.7,27.3l70.2,135.3c2.2,4.2,7.4,5.9,11.6,3.7
				c4.2-2.2,5.9-7.4,3.7-11.6l-77.8-150c-1.5-2.9-4.4-4.6-7.6-4.6c-3.2,0-6.2,1.8-7.6,4.6L52.6,219.5c-0.2,0.3-0.3,0.6-0.4,1
				c-12.3,32.9-11,68.7,3.5,100.7c14.6,32,40.8,56.4,73.7,68.7c13.5,5,27.6,7.8,42,8.3c0.1,0,0.2,0,0.3,0c0.1,0,0.2,0,0.3,0
				c14.4-0.4,28.5-3.2,42-8.3c32.9-12.3,59.1-36.7,73.7-68.7C302.3,289.2,303.6,253.4,291.3,220.5z"/>
			<path class="st0" d="M463.8,278.1c-0.1-0.3-0.3-0.6-0.4-1l-19.6-37.8c-2.2-4.2-7.4-5.9-11.6-3.7c-4.2,2.2-5.9,7.4-3.7,11.6
				l19.4,37.3c9.7,26.8-4,56.5-30.7,66.5c-5.3,2-10.8,3.1-16.4,3.3c-5.6-0.2-11.1-1.3-16.4-3.3c-13-4.9-23.4-14.5-29.1-27.2
				c-5.7-12.5-6.3-26.4-1.6-39.3l47.1-90.7l15.6,30.1c2.2,4.2,7.4,5.9,11.6,3.7c4.2-2.2,5.9-7.4,3.7-11.6l-23.2-44.8
				c-1.5-2.9-4.4-4.6-7.6-4.6c-3.2,0-6.2,1.8-7.6,4.6l-55,106c-0.2,0.3-0.3,0.6-0.4,1c-6.5,17.3-5.8,36.1,1.9,53
				c7.7,16.8,21.5,29.7,38.8,36.1c7.1,2.6,14.5,4.1,22.1,4.3c0.1,0,0.2,0,0.3,0s0.2,0,0.3,0c7.6-0.2,15-1.7,22.1-4.3
				C459,353.9,477.2,313.9,463.8,278.1z"/>
			<path class="st0" d="M354,444.9l-36.6-70.6c-1.5-2.9-4.4-4.6-7.6-4.6c-3.2,0-6.2,1.8-7.6,4.6l-36.6,70.6c-0.2,0.3-0.3,0.6-0.4,1
				c-9.5,25.3,3.5,53.6,28.8,63.1c5,1.9,10.3,2.9,15.7,3.1c0.1,0,0.2,0,0.3,0c0.1,0,0.2,0,0.3,0c5.4-0.2,10.6-1.2,15.7-3.1
				c25.3-9.5,38.2-37.8,28.8-63.1C354.3,445.5,354.1,445.2,354,444.9z M319.6,492.8c-3.2,1.2-6.5,1.9-9.9,2c-3.4-0.1-6.7-0.8-9.9-2
				c-16.3-6.1-24.7-24.2-18.8-40.5l28.7-55.4l28.7,55.4C344.2,468.6,335.9,486.7,319.6,492.8z"/>
		</g>
	</g>
</g>
</svg>
