<?xml version="1.0" encoding="utf-8"?>
<!-- Generator: Adobe Illustrator 23.0.6, SVG Export Plug-In . SVG Version: 6.00 Build 0)  -->
<svg version="1.1" id="Layer_1" xmlns="http://www.w3.org/2000/svg" xmlns:xlink="http://www.w3.org/1999/xlink" x="0px" y="0px"
	 viewBox="0 0 495 495" style="enable-background:new 0 0 495 495;" xml:space="preserve">
<style type="text/css">
	.st0{fill:#213463;}
	.st1{fill:#E13F20;}
</style>
<path class="st0" d="M440,188.6c-1.5-2.3-4-3.6-6.7-3.6s-5.2,1.4-6.7,3.6L373,270.4c-1.6,2.5-1.7,5.7-0.4,8.3c1.4,2.6,4.1,4.3,7,4.3
	H423c-6.8,44.3-29.2,84.6-63.2,113.8c-32.8,28.1-73.9,44.1-112.8,44.1c-25.4,0-51.9-6.9-76.8-19.8c-25.8-13.5-48.2-32.7-65.5-56.2
	c-1.7-2.4-4.5-3.7-7.4-3.4c-2.9,0.3-5.4,2.1-6.5,4.8c-1.2,2.7-0.8,5.8,1,8.1c18.7,25.5,43,46.3,71,60.9
	c27.1,14.1,56.2,21.6,84.2,21.6c42.7,0,87.6-17.4,123.2-47.9c37.8-32.2,62.3-77,69.1-126H487c3,0,5.6-1.7,7-4.3
	c1.4-2.6,1.3-5.8-0.3-8.2L440,188.6z M394.5,267l38.8-59.2l38.8,59.2H394.5z"/>
<path class="st0" d="M122.3,217.3c-1.4-2.6-4.1-4.3-7-4.3H71.9c6.8-44.3,29.2-84.6,63.2-113.8c32.8-28.1,73.9-44.1,112.8-44.1
	c25.4,0,51.9,6.9,76.8,19.8c25.8,13.5,48.2,32.7,65.5,56.2c1.7,2.4,4.5,3.7,7.4,3.4s5.4-2.1,6.5-4.8c1.2-2.7,0.8-5.8-1-8.1
	c-18.7-25.5-43-46.3-71-60.9c-27.1-14.1-56.2-21.6-84.2-21.6c-42.7,0-87.6,17.4-123.2,47.9c-37.7,32.2-62.2,77-69,126H8
	c-3,0-5.6,1.7-7,4.3s-1.3,5.8,0.3,8.2L55,307.4c1.5,2.3,4,3.6,6.7,3.6s5.2-1.4,6.7-3.6l53.7-81.9
	C123.6,223.1,123.7,219.9,122.3,217.3z M61.7,288.2L22.8,229h77.7L61.7,288.2z"/>
<path class="st1" d="M276.4,288h-56.8c-2.1,0-4.2,0.8-5.7,2.3s-2.4,3.5-2.4,5.6v54.5l16,0.1V304h41v46.9l-18.7-0.2l34.7,0.3v-55.2
	C284.4,291.4,280.8,287.9,276.4,288z"/>
<path class="st0" d="M365.3,228l-112.5-97.6c-3-2.6-7.5-2.6-10.5,0L129.6,228c-2.5,2.2-3.4,5.7-2.3,8.8c1.2,3.1,4.2,5.2,7.5,5.1
	h17.6v115.9c-0.1,4.4,3.4,8.1,7.9,8.2l172.2,1.8h0.1c2.1-0.1,4.1-1,5.6-2.5c1.5-1.6,2.3-3.7,2.3-5.9V242h19.6c3.3,0,6.3-2,7.5-5.1
	S367.9,230.2,365.3,228z M324.5,351.4l-40-0.4l-34.7-0.3l-22.3-0.2l0,0l-16-0.1l-43-0.4V242h155.9v109.4H324.5z M156.4,226
	l91.3-79.1l91,79.1H156.4z"/>
</svg>
