<?xml version="1.0" encoding="utf-8"?>
<!-- Generator: Adobe Illustrator 23.0.6, SVG Export Plug-In . SVG Version: 6.00 Build 0)  -->
<svg version="1.1" id="Layer_1" xmlns="http://www.w3.org/2000/svg" xmlns:xlink="http://www.w3.org/1999/xlink" x="0px" y="0px"
	 viewBox="0 0 512 512" style="enable-background:new 0 0 512 512;" xml:space="preserve">
<style type="text/css">
	.st0{fill:#FFFFFF;}
</style>
<path class="st0" d="M489.5,390.5h-66.7c3-4.8,4.7-10.5,4.7-16.5v-22.5c0-4.1-3.4-7.5-7.5-7.5s-7.5,3.4-7.5,7.5V374
	c0,9.1-7.4,16.5-16.5,16.5h-52c-9.1,0-16.5-7.4-16.5-16.5V208c0-9.1,7.4-16.5,16.5-16.5h52c9.1,0,16.5,7.4,16.5,16.5v111.5
	c0,4.1,3.4,7.5,7.5,7.5s7.5-3.4,7.5-7.5V208c0-6-1.7-11.7-4.7-16.5h0.5c17.4,0,31.5-14.1,31.5-31.5v-52c0-17.4-14.1-31.5-31.5-31.5
	H160c-4.1,0-7.5,3.4-7.5,7.5s3.4,7.5,7.5,7.5h263.4c9.1,0,16.5,7.4,16.5,16.5v52c0,9.1-7.4,16.5-16.5,16.5H88.6
	c-9.1,0-16.5-7.4-16.5-16.5v-52c0-9.1,7.4-16.5,16.5-16.5H128c4.1,0,7.5-3.4,7.5-7.5s-3.4-7.5-7.5-7.5H88.6
	c-17.4,0-31.5,14.1-31.5,31.5v52c0,17.4,14.1,31.5,31.5,31.5h0.5c-3,4.8-4.7,10.5-4.7,16.5v15.3c0,4.1,3.4,7.5,7.5,7.5
	s7.5-3.4,7.5-7.5V208c0-9.1,7.4-16.5,16.5-16.5h52c9.1,0,16.5,7.4,16.5,16.5v166c0,9.1-7.4,16.5-16.5,16.5h-52
	c-9.1,0-16.5-7.4-16.5-16.5V256c0-4.1-3.4-7.5-7.5-7.5s-7.5,3.4-7.5,7.5v118c0,6,1.7,11.7,4.7,16.5H22.5C10.1,390.5,0,400.6,0,413
	s10.1,22.5,22.5,22.5h467c12.4,0,22.5-10.1,22.5-22.5S501.9,390.5,489.5,390.5z M194.8,191.5h122.4c-3,4.8-4.7,10.5-4.7,16.5v166
	c0,6,1.7,11.7,4.7,16.5H194.8c3-4.8,4.7-10.5,4.7-16.5V208C199.5,202,197.8,196.3,194.8,191.5z M489.5,420.5h-467
	c-4.1,0-7.5-3.4-7.5-7.5s3.4-7.5,7.5-7.5h467c4.1,0,7.5,3.4,7.5,7.5S493.6,420.5,489.5,420.5z"/>
<path class="st0" d="M161.9,276.7c4.1,0,7.5-3.4,7.5-7.5v-52.2c0-8-6.5-14.5-14.5-14.5h-16.2c-4.1,0-7.5,3.4-7.5,7.5
	s3.4,7.5,7.5,7.5h15.8v51.7C154.4,273.4,157.7,276.7,161.9,276.7z"/>
<path class="st0" d="M390,323.3c4.1,0,7.5-3.4,7.5-7.5v-98.7c0-8-6.5-14.5-14.5-14.5h-16.2c-4.1,0-7.5,3.4-7.5,7.5s3.4,7.5,7.5,7.5
	h15.8v98.2C382.5,319.9,385.9,323.3,390,323.3z"/>
<path class="st0" d="M417.4,147.2c4.1,0,7.5-3.4,7.5-7.5v-13.8c0-10.2-8.3-18.5-18.5-18.5H222c-4.1,0-7.5,3.4-7.5,7.5
	s3.4,7.5,7.5,7.5h184.3c1.9,0,3.5,1.6,3.5,3.5v13.8C409.9,143.8,413.2,147.2,417.4,147.2z"/>
<path class="st0" d="M94.5,114v36c0,4.1,3.4,7.5,7.5,7.5s7.5-3.4,7.5-7.5v-36c0-4.1-3.4-7.5-7.5-7.5S94.5,109.9,94.5,114z"/>
</svg>
