<?xml version="1.0" encoding="utf-8"?>
<!-- Generator: Adobe Illustrator 23.0.6, SVG Export Plug-In . SVG Version: 6.00 Build 0)  -->
<svg version="1.1" id="Layer_3" xmlns="http://www.w3.org/2000/svg" xmlns:xlink="http://www.w3.org/1999/xlink" x="0px" y="0px"
	 viewBox="0 0 512 512" style="enable-background:new 0 0 512 512;" xml:space="preserve">
<style type="text/css">
	.st0{fill:#213463;}
	.st1{fill:#E13F20;}
</style>
<path class="st0" d="M504,24V8H256c-4.4,0-8,3.6-8,8v64c0,4.4,3.6,8,8,8h8v400H8v16h264h32h64h32h104v-16h-96v-40h96v-16H400h-32
	h-24v-16h160v-16H336c-4.4,0-8,3.6-8,8v32c0,4.4,3.6,8,8,8h24v40h-48V88h192V72H304h-32h-8V24H504z M376,448h16v40h-16V448z M296,88
	v400h-16V88H296z"/>
<path class="st1" d="M168,256c0-16.9-4-33.9-11.6-49l-5.3-10.5c-2.7-5.4-11.6-5.4-14.3,0l-5.3,10.5c-7.6,15.1-11.6,32.1-11.6,49
	c0,1.9,0.2,3.8,0.3,5.8c-5.2-3.9-11.1-6.7-17.4-8.3l-21-5.3c-2.7-0.7-5.6,0.1-7.6,2.1s-2.8,4.9-2.1,7.6l5.3,21
	c2.2,8.6,6.6,16.4,12.8,22.7c6.2,6.3,14.1,10.7,22.7,12.8h0l5.4,1.3l-10,5l7.2,14.3l20.4-10.2V344H80c-4.4,0-8,3.6-8,8v32
	c0,4.4,3.6,8,8,8h8.8l7.3,72.8c0.4,4.1,3.8,7.2,8,7.2h80c4.1,0,7.6-3.1,8-7.2l7.3-72.8h8.8c4.4,0,8-3.6,8-8v-32c0-4.4-3.6-8-8-8h-56
	v-19.1l20.4,10.2l7.2-14.3l-10-5l5.4-1.3h0c8.6-2.2,16.4-6.6,22.7-12.8c6.3-6.2,10.7-14.1,12.8-22.7l5.3-21c0.7-2.7-0.1-5.6-2.1-7.6
	s-4.9-2.8-7.6-2.1l-21,5.3c-6.3,1.6-12.2,4.4-17.4,8.3C167.8,259.8,168,257.9,168,256L168,256z M176.8,456h-65.5l-6.4-64h78.3
	L176.8,456z M200,376H88v-16h112V376z M144,218.1c5.2,11.9,8,24.9,8,37.9c0,13-2.8,26-8,37.9c-5.2-11.9-8-24.9-8-37.9
	S138.8,230,144,218.1L144,218.1z M101.7,290.3c-4.2-4.2-7.2-9.5-8.6-15.3l-2-8.1l8.1,2c5.8,1.5,11.1,4.4,15.3,8.6s7.2,9.5,8.6,15.3
	l2,8.1l-8.1-2C111.1,297.5,105.9,294.5,101.7,290.3z M188.9,269l8.1-2l-2,8.1c-1.5,5.8-4.4,11.1-8.6,15.3s-9.5,7.2-15.3,8.6l-8.1,2
	l2-8.1c1.5-5.8,4.4-11.1,8.6-15.3S183.1,270.5,188.9,269z"/>
<path class="st0" d="M40,120h104c22.1,0,40-17.9,40-40s-17.9-40-40-40c-3.5,0-7,0.5-10.4,1.4C127.4,21.8,109.4,8,88,8
	C61.5,8,40,29.5,40,56C22.4,56,8,70.4,8,88S22.4,120,40,120z M40,72c2.2,0,4.3,0.4,6.3,1.3c2.8,1.2,6,0.7,8.3-1.3
	c2.3-2,3.3-5.1,2.5-8.1c-0.8-3-1.1-5.5-1.1-7.9c0-17.6,14.4-32,32-32c16.6,0,30.3,12.6,31.7,29.3c0.2,2.8,1.9,5.2,4.3,6.4
	c2.5,1.3,5.4,1.2,7.8-0.3c3.9-2.3,8-3.5,12.2-3.5c13.2,0,24,10.8,24,24s-10.8,24-24,24H40c-8.8,0-16-7.2-16-16S31.2,72,40,72z"/>
</svg>
