<?xml version="1.0" standalone="no"?>
<!DOCTYPE svg PUBLIC "-//W3C//DTD SVG 20010904//EN"
 "http://www.w3.org/TR/2001/REC-SVG-20010904/DTD/svg10.dtd">
<svg version="1.0" xmlns="http://www.w3.org/2000/svg"
 width="1280.000000pt" height="398.000000pt" viewBox="0 0 1280.000000 398.000000"
 preserveAspectRatio="xMidYMid meet">

<g transform="translate(0.000000,398.000000) scale(0.100000,-0.100000)"
fill="#000000" stroke="none">
<path d="M1468 3373 c-6 -16 -12 -30 -13 -33 -10 -40 -18 -50 -35 -45 -10 3
-27 7 -37 9 -10 2 -54 12 -98 21 -107 23 -382 30 -485 11 -121 -22 -279 -78
-468 -167 -45 -21 -86 -39 -92 -39 -5 0 -11 -4 -14 -9 -3 -5 18 -9 47 -9 92 0
206 -43 239 -91 8 -11 31 -22 53 -25 22 -4 56 -11 75 -16 19 -5 46 -11 60 -14
43 -8 174 -57 206 -77 17 -10 37 -19 44 -19 17 0 93 -48 139 -86 20 -17 43
-34 51 -37 8 -3 -243 -6 -557 -6 l-573 -1 0 -820 0 -820 6395 0 6395 0 0 820
0 820 -5378 0 -5378 0 -21 43 c-50 102 -219 296 -316 361 -41 28 -116 70 -193
109 l-52 26 12 33 c6 18 17 43 23 54 12 21 8 34 -9 34 -5 0 -14 -12 -20 -27z
m-228 -574 c0 -6 -8 -23 -19 -37 -10 -15 -24 -45 -32 -67 -13 -41 -29 -68 -25
-44 5 32 59 159 67 159 5 0 9 -5 9 -11z m-255 -789 c54 -148 101 -270 105
-270 4 0 51 122 105 270 l98 270 67 0 67 0 98 -267 c54 -148 101 -271 104
-275 3 -4 51 116 106 267 l100 275 72 0 73 0 -24 -63 c-13 -35 -79 -215 -146
-400 l-123 -337 -56 0 -56 0 -105 290 c-58 159 -107 290 -110 290 -3 0 -52
-131 -110 -290 l-104 -290 -56 0 -56 0 -134 368 c-73 202 -140 382 -147 400
l-13 32 73 0 74 0 98 -270z m1835 200 l0 -70 -300 0 -300 0 0 -100 0 -100 113
6 c61 4 169 3 240 -1 l127 -7 0 -64 0 -64 -240 0 -240 0 0 -100 0 -100 300 0
300 0 0 -65 0 -65 -370 0 -370 0 0 400 0 400 370 0 370 0 0 -70z m857 34 c21
-17 43 -46 50 -65 8 -24 12 -136 12 -366 l1 -333 -70 0 -70 0 0 135 0 135
-265 0 -265 0 0 -135 0 -135 -65 0 -65 0 0 348 c0 330 1 349 20 380 12 19 39
42 63 53 39 18 62 19 329 17 l286 -3 39 -31z m953 -34 l0 -70 -170 0 -170 0 0
-330 0 -330 -65 0 -65 0 0 330 0 330 -170 0 -170 0 0 70 0 70 405 0 405 0 0
-70z m210 -100 l0 -170 280 0 280 0 0 170 0 170 65 0 65 0 0 -400 0 -400 -65
0 -65 0 0 165 0 165 -280 0 -280 0 0 -165 0 -165 -65 0 -65 0 0 400 0 400 65
0 65 0 0 -170z m1560 100 l0 -70 -305 0 -305 0 0 -100 0 -100 245 0 245 0 0
-65 0 -65 -245 0 -245 0 0 -100 0 -100 305 0 305 0 0 -65 0 -65 -370 0 -370 0
0 400 0 400 370 0 370 0 0 -70z m837 44 c15 -11 38 -36 51 -54 20 -31 22 -44
22 -182 0 -160 -5 -182 -54 -227 -20 -19 -41 -26 -91 -30 l-66 -6 106 -125
c58 -68 105 -130 105 -137 0 -10 -21 -13 -79 -13 l-78 0 -112 135 -112 135
-145 0 -144 0 0 -135 0 -135 -65 0 -65 0 0 401 0 400 349 -3 c336 -3 351 -4
378 -24z"/>
<path d="M3070 2010 l0 -130 265 0 265 0 0 130 0 130 -265 0 -265 0 0 -130z"/>
<path d="M6644 2127 c-2 -7 -3 -62 -2 -123 l3 -109 265 0 265 0 0 120 0 120
-263 3 c-211 2 -263 0 -268 -11z"/>
<path d="M10 55 l0 -55 6395 0 6395 0 0 55 0 55 -6395 0 -6395 0 0 -55z"/>
</g>
</svg>
