<svg xmlns="http://www.w3.org/2000/svg" viewBox="0 0 735.88 191.81"><defs><style>.cls-1{fill:#213463;}.cls-2{fill:#e13f20;}.cls-3{fill:#9d9d9c;}</style></defs><title>TI-logo-original</title><g id="Layer_2" data-name="Layer 2"><g id="Layer_1-2" data-name="Layer 1"><path class="cls-1" d="M190.13.22V9.65H169.19v42h-9.51v-42h-21V.22Z"/><path class="cls-1" d="M247.86,24.09a10,10,0,0,1-10,9.94h-2.79l12.79,15.22v2.43H237.57L222.7,34H205.83V51.68H196.4V.29h41.46a10,10,0,0,1,10,9.93Zm-10,.5a.49.49,0,0,0,.5-.5V10.22a.5.5,0,0,0-.5-.5H206.33a.5.5,0,0,0-.5.5V24.09a.49.49,0,0,0,.5.5Z"/><path class="cls-1" d="M298.34.22a10,10,0,0,1,10,9.93V51.68h-9.51V34.38H266.32v17.3h-9.44V10.15A9.91,9.91,0,0,1,266.82.22Zm.5,24.73V10.15a.49.49,0,0,0-.5-.5H266.82a.49.49,0,0,0-.5.5V25Z"/><path class="cls-1" d="M317.65.22h9.44V51.68h-9.44Z"/><path class="cls-1" d="M334.46.14h9.44V42.25h42v9.43H334.46Z"/><path class="cls-1" d="M440.65,20.23a8.56,8.56,0,0,1-.71,3.65,10.06,10.06,0,0,1,2.78,6.79V41.75a10,10,0,0,1-10,9.93H391.26V.22h39.46a10,10,0,0,1,9.93,9.93ZM401.2,9.65a.49.49,0,0,0-.5.5V20.23a.48.48,0,0,0,.5.5h29.52a.48.48,0,0,0,.43-.5V10.15a.49.49,0,0,0-.43-.5Zm32,21c0-.29-.22-.43-.5-.43H401.2c-.29,0-.5.14-.5.43V41.75a.49.49,0,0,0,.5.5h31.52a.5.5,0,0,0,.5-.5Z"/><path class="cls-1" d="M451.45.14h9.44V42.25h42v9.43H451.45Z"/><path class="cls-1" d="M549.64.22a10,10,0,0,1,10,9.93V51.68h-9.51V34.38H517.62v17.3h-9.44V10.15A9.91,9.91,0,0,1,518.12.22Zm.5,24.73V10.15a.49.49,0,0,0-.5-.5H518.12a.49.49,0,0,0-.5.5V25Z"/><path class="cls-1" d="M568.52.22H620V10.51L582.24,42.25H620v9.43H568.52V41.39L606.26,9.65H568.52Z"/><path class="cls-1" d="M676.11,9.65H638.29V21.23h30.46v9.44H638.29V42.25h37.82v9.43H628.79V.22h47.32Z"/><path class="cls-1" d="M735.88,24.09a10,10,0,0,1-10,9.94h-2.79l12.8,15.22v2.43h-10.3L710.72,34H693.85V51.68h-9.44V.29h41.46a10,10,0,0,1,10,9.93Zm-10,.5a.49.49,0,0,0,.5-.5V10.22a.5.5,0,0,0-.5-.5H694.35a.49.49,0,0,0-.5.5V24.09a.48.48,0,0,0,.5.5Z"/><path class="cls-1" d="M138.67,72.68h8.24v45h-8.24Z"/><path class="cls-1" d="M190.2,72.68h8.3v45h-9l-27.73-33v33h-8.24v-45h9l27.67,33Z"/><path class="cls-1" d="M215.22,80.93a.41.41,0,0,0-.43.43V109a.41.41,0,0,0,.43.43h36.16v8.25H215.22a8.67,8.67,0,0,1-8.68-8.68V81.36a8.66,8.66,0,0,1,8.68-8.68h36.16v8.25Z"/><path class="cls-1" d="M295.36,72.68a8.71,8.71,0,0,1,8.69,8.68V109a8.71,8.71,0,0,1-8.69,8.68h-27.6a8.67,8.67,0,0,1-8.68-8.68V81.36a8.66,8.66,0,0,1,8.68-8.68Zm0,36.72a.41.41,0,0,0,.38-.43V81.36a.41.41,0,0,0-.38-.43h-27.6a.41.41,0,0,0-.43.43V109a.41.41,0,0,0,.43.43Z"/><path class="cls-1" d="M357.05,93.54a8.75,8.75,0,0,1-8.74,8.68h-2.44l11.18,13.3v2.13h-9l-13-15.43H320.33v15.43h-8.24V72.74h36.22a8.76,8.76,0,0,1,8.74,8.69Zm-8.74.44a.43.43,0,0,0,.44-.44V81.43a.43.43,0,0,0-.44-.44H320.77a.43.43,0,0,0-.44.44V93.54a.43.43,0,0,0,.44.44Z"/><path class="cls-1" d="M401.13,72.74a8.76,8.76,0,0,1,8.74,8.69V93.54a8.75,8.75,0,0,1-8.74,8.68l-27.79.06-.19-.06v15.43h-8.24V72.74Zm.44,8.69a.43.43,0,0,0-.44-.44H373.59a.43.43,0,0,0-.44.44V93.54a.43.43,0,0,0,.44.44h27.54a.43.43,0,0,0,.44-.44Z"/><path class="cls-1" d="M451.6,72.68a8.71,8.71,0,0,1,8.69,8.68V109a8.71,8.71,0,0,1-8.69,8.68H424a8.67,8.67,0,0,1-8.68-8.68V81.36A8.66,8.66,0,0,1,424,72.68Zm0,36.72A.41.41,0,0,0,452,109V81.36a.41.41,0,0,0-.38-.43H424a.41.41,0,0,0-.43.43V109a.41.41,0,0,0,.43.43Z"/><path class="cls-1" d="M513.1,93.54a8.75,8.75,0,0,1-8.74,8.68h-2.44l11.18,13.3v2.13h-9l-13-15.43H476.38v15.43h-8.24V72.74h36.22a8.76,8.76,0,0,1,8.74,8.69Zm-8.74.44a.43.43,0,0,0,.44-.44V81.43a.43.43,0,0,0-.44-.44H476.82a.43.43,0,0,0-.44.44V93.54a.43.43,0,0,0,.44.44Z"/><path class="cls-1" d="M557.3,72.68a8.72,8.72,0,0,1,8.75,8.68v36.29h-8.31V102.53H529.33v15.12h-8.25V81.36a8.66,8.66,0,0,1,8.68-8.68Zm.44,21.61V81.36a.42.42,0,0,0-.44-.43H529.76a.41.41,0,0,0-.43.43V94.29Z"/><path class="cls-1" d="M617,72.68v8.25h-18.3v36.72h-8.3V80.93H572.06V72.68Z"/><path class="cls-1" d="M622.91,72.68h8.24v45h-8.24Z"/><path class="cls-1" d="M673.79,72.68a8.7,8.7,0,0,1,8.68,8.68V109a8.7,8.7,0,0,1-8.68,8.68h-27.6a8.67,8.67,0,0,1-8.68-8.68V81.36a8.66,8.66,0,0,1,8.68-8.68Zm0,36.72a.41.41,0,0,0,.38-.43V81.36a.41.41,0,0,0-.38-.43h-27.6a.42.42,0,0,0-.44.43V109a.42.42,0,0,0,.44.43Z"/><path class="cls-1" d="M727.57,72.68h8.31v45h-9l-27.72-33v33h-8.25v-45h9l27.66,33Z"/><path class="cls-2" d="M23,23V36.13H52.28V65.39L65.51,52.14v-16h16L94.67,23Z"/><path class="cls-2" d="M0,0V117.64l13.11-13.09V13.07h91.47L117.66,0Z"/><polygon class="cls-1" points="117.66 0 117.66 117.64 0 117.64 13.11 104.55 52.28 65.39 52.28 94.66 65.51 94.66 65.51 52.14 81.53 36.13 94.66 36.13 94.66 22.99 117.66 0"/><path class="cls-3" d="M54.19,148.49l-11.71,31h-3.8L27.13,153.9l-11,25.61H12.31C8.14,169,4.24,159,.12,148.49H4.83l9.41,23.11,10-23.11H30l10.64,23,8.77-23Z"/><path class="cls-3" d="M88.79,155V166.2H61.57V173a2.13,2.13,0,0,0,2.09,2.09H88.79v4.38H63.66A6.46,6.46,0,0,1,57.18,173V155a6.47,6.47,0,0,1,6.48-6.48H82.27A6.47,6.47,0,0,1,88.79,155Zm-4.44,6.84V155a2.09,2.09,0,0,0-2.08-2.09H63.66A2.12,2.12,0,0,0,61.57,155v6.84Z"/><path class="cls-3" d="M125.85,155v24.54H100.72A6.45,6.45,0,0,1,94.25,173V161.81h27.17V155a2.09,2.09,0,0,0-2.09-2.09H94.25v-4.39h25.08A6.47,6.47,0,0,1,125.85,155Zm-4.43,11.23H98.63V173a2.14,2.14,0,0,0,2.09,2.09h20.7Z"/><path class="cls-3" d="M135.8,152.88V173a2.13,2.13,0,0,0,2.09,2.09h11.34v4.38H137.89a6.42,6.42,0,0,1-6.47-6.47V138.33h4.38v10.16h13.43v4.39Z"/><path class="cls-3" d="M185.27,155v24.54h-4.38V155a2.13,2.13,0,0,0-2.09-2.09H160.19a2.13,2.13,0,0,0-2.14,2.09v24.54h-4.39V138.33h4.39v10.16H178.8A6.5,6.5,0,0,1,185.27,155Z"/><path class="cls-3" d="M220.84,155V166.2H193.61V173a2.14,2.14,0,0,0,2.09,2.09h25.14v4.38H195.7a6.46,6.46,0,0,1-6.47-6.47V155a6.46,6.46,0,0,1,6.47-6.48h18.61A6.48,6.48,0,0,1,220.84,155Zm-4.44,6.84V155a2.09,2.09,0,0,0-2.09-2.09H195.7a2.13,2.13,0,0,0-2.09,2.09v6.84Z"/><path class="cls-3" d="M249.93,148.49v4.39H232.5a2.12,2.12,0,0,0-2.09,2.09v24.54H226V155a6.47,6.47,0,0,1,6.48-6.48Z"/><path class="cls-3" d="M285.12,155V173a6.46,6.46,0,0,1-6.47,6.47H257.9v12.3h-4.39V148.49h25.14A6.46,6.46,0,0,1,285.12,155Zm-4.38,0a2.13,2.13,0,0,0-2.09-2.09H260A2.13,2.13,0,0,0,257.9,155V173a2.14,2.14,0,0,0,2.14,2.09h18.61a2.14,2.14,0,0,0,2.09-2.09Z"/><path class="cls-3" d="M312.82,148.49v4.39H295.39A2.13,2.13,0,0,0,293.3,155v24.54h-4.38V155a6.46,6.46,0,0,1,6.47-6.48Z"/><path class="cls-3" d="M341.06,148.49a6.48,6.48,0,0,1,6.53,6.48V173a6.47,6.47,0,0,1-6.53,6.47H322.45A6.46,6.46,0,0,1,316,173V155a6.46,6.46,0,0,1,6.47-6.48Zm-18.61,4.39a2.12,2.12,0,0,0-2.08,2.09V173a2.13,2.13,0,0,0,2.08,2.09h18.61a2.1,2.1,0,0,0,2.09-2.09V155a2.09,2.09,0,0,0-2.09-2.09Z"/><path class="cls-3" d="M377,148.49a6.48,6.48,0,0,1,6.53,6.48V173a6.47,6.47,0,0,1-6.53,6.47H358.39a6.46,6.46,0,0,1-6.47-6.47V155a6.46,6.46,0,0,1,6.47-6.48Zm-18.61,4.39A2.13,2.13,0,0,0,356.3,155V173a2.14,2.14,0,0,0,2.09,2.09H377a2.1,2.1,0,0,0,2.09-2.09V155a2.09,2.09,0,0,0-2.09-2.09Z"/><path class="cls-3" d="M393.42,144.8v3.69h13.42v4.39H393.42v26.63H389V144.8a6.4,6.4,0,0,1,6.48-6.47h11.33v4.39H395.51A2.12,2.12,0,0,0,393.42,144.8Z"/><path class="cls-3" d="M415.13,138.33v4.39h-4.38v-4.39Zm-4.38,10.16h4.38v31h-4.38Z"/><path class="cls-3" d="M452.78,155v24.54H448.4V155a2.12,2.12,0,0,0-2.09-2.09H427.7a2.13,2.13,0,0,0-2.14,2.09v24.54h-4.38v-31h25.13A6.46,6.46,0,0,1,452.78,155Z"/><path class="cls-3" d="M482.79,191.76H463.43v-4.44h19.36a2.12,2.12,0,0,0,2.08-2.08v-5.73H464.18A6.46,6.46,0,0,1,457.7,173V155a6.47,6.47,0,0,1,6.48-6.48h18.61a6.43,6.43,0,0,1,6.47,6.48v30.27A6.44,6.44,0,0,1,482.79,191.76Zm0-16.63a2.13,2.13,0,0,0,2.08-2.09V155a2.12,2.12,0,0,0-2.08-2.09H464.18a2.12,2.12,0,0,0-2.09,2.09V173a2.13,2.13,0,0,0,2.09,2.09Z"/><path class="cls-3" d="M540.76,155.39h-4.44V155a2.12,2.12,0,0,0-2.08-2.09H515.62a2.12,2.12,0,0,0-2.08,2.09v4.76a2.12,2.12,0,0,0,2.08,2.08h18.62a6.47,6.47,0,0,1,6.52,6.47V173a6.47,6.47,0,0,1-6.52,6.47H515.62a6.46,6.46,0,0,1-6.47-6.47v-.43h4.39V173a2.13,2.13,0,0,0,2.08,2.09h18.62a2.13,2.13,0,0,0,2.08-2.09v-4.76a2.12,2.12,0,0,0-2.08-2.08H515.62a6.46,6.46,0,0,1-6.47-6.47V155a6.46,6.46,0,0,1,6.47-6.48h18.62a6.47,6.47,0,0,1,6.52,6.48Z"/><path class="cls-3" d="M571.08,148.49a6.48,6.48,0,0,1,6.53,6.48V173a6.47,6.47,0,0,1-6.53,6.47H552.47A6.46,6.46,0,0,1,546,173V155a6.46,6.46,0,0,1,6.47-6.48Zm-18.61,4.39a2.12,2.12,0,0,0-2.08,2.09V173a2.13,2.13,0,0,0,2.08,2.09h18.61a2.1,2.1,0,0,0,2.09-2.09V155a2.09,2.09,0,0,0-2.09-2.09Z"/><path class="cls-3" d="M586.38,138.33V173a2.13,2.13,0,0,0,2.09,2.09h5.24v4.38h-5.24A6.45,6.45,0,0,1,582,173V138.33Z"/><path class="cls-3" d="M629.81,148.49V173a6.47,6.47,0,0,1-6.53,6.47H604.67A6.46,6.46,0,0,1,598.2,173V148.49h4.38V173a2.14,2.14,0,0,0,2.09,2.09h18.61a2.14,2.14,0,0,0,2.14-2.09V148.49Z"/><path class="cls-3" d="M639,152.88V173a2.13,2.13,0,0,0,2.09,2.09h11.34v4.38H641a6.42,6.42,0,0,1-6.47-6.47V138.33H639v10.16h13.43v4.39Z"/><path class="cls-3" d="M661.09,138.33v4.39h-4.38v-4.39Zm-4.38,10.16h4.38v31h-4.38Z"/><path class="cls-3" d="M692.86,148.49a6.48,6.48,0,0,1,6.53,6.48V173a6.47,6.47,0,0,1-6.53,6.47H674.25a6.45,6.45,0,0,1-6.47-6.47V155a6.46,6.46,0,0,1,6.47-6.48Zm-18.61,4.39a2.13,2.13,0,0,0-2.09,2.09V173a2.14,2.14,0,0,0,2.09,2.09h18.61A2.1,2.1,0,0,0,695,173V155a2.09,2.09,0,0,0-2.09-2.09Z"/><path class="cls-3" d="M735.75,155v24.54h-4.38V155a2.13,2.13,0,0,0-2.09-2.09H710.67a2.13,2.13,0,0,0-2.14,2.09v24.54h-4.39v-31h25.14A6.46,6.46,0,0,1,735.75,155Z"/></g></g></svg>