<?xml version="1.0" encoding="utf-8"?>
<!-- Generator: Adobe Illustrator 23.0.6, SVG Export Plug-In . SVG Version: 6.00 Build 0)  -->
<svg version="1.1" id="Layer_1" xmlns="http://www.w3.org/2000/svg" xmlns:xlink="http://www.w3.org/1999/xlink" x="0px" y="0px"
	 viewBox="0 0 512 512" style="enable-background:new 0 0 512 512;" xml:space="preserve">
<style type="text/css">
	.st0{fill:#E13F20;}
	.st1{fill:#213463;}
</style>
<polygon class="st0" points="264.3,11 243.4,11 243.4,27.2 264.3,27.1 "/>
<path class="st0" d="M243.6,440.1c0,34.1,26.1,60.7,58.4,60.7s58.4-26.6,58.4-60.7h-20.9c0,21.3-16.7,39.4-37.5,39.4
	s-37.5-18.1-37.5-39.4V236.8h-20.9V440.1z"/>
<path class="st1" d="M264.3,27.1L264.3,27.1L264.3,27.1l-20.9,0.1C113.8,32.8,11,124.2,11,234.7v2.1l16.7-1.1
	c0-21.3,21.9-38.4,48-38.4c27.1,0,49,18.1,49,39.4h20.9c0-22.4,21.9-39.4,49-39.4s49,18.1,49,39.4v0.1h20.9v-0.3h-20.9h20.9
	c0.2-22.2,22-39.1,49-39.1c27.1,0,49,18.1,49,39.4h20.9c0-22.4,21.9-39.4,49-39.4c26.1,0,48,17,48,38.4H501v-1.1
	C501,123,396,30.8,264.3,27.1z M431.1,176.1c-24,0-45.9,11.7-58.4,28.8c-11.5-17-33.4-28.8-58.4-28.8c-24,0-45.9,11.7-59.4,29.8
	c-11.5-17-33.4-28.8-58.4-28.8c-24,0-45.9,11.7-58.4,28.8c-11.5-17-33.4-28.8-58.4-28.8c-15.6,0-30.2,4.3-41.7,11.7
	c25-81,113.6-140.6,217.9-140.6s192.9,59.7,216.9,139.6C461.4,180.4,446.8,176.1,431.1,176.1z"/>
</svg>
