<?xml version="1.0" encoding="utf-8"?>
<!-- Generator: Adobe Illustrator 23.0.6, SVG Export Plug-In . SVG Version: 6.00 Build 0)  -->
<svg version="1.1" id="Layer_1" xmlns="http://www.w3.org/2000/svg" xmlns:xlink="http://www.w3.org/1999/xlink" x="0px" y="0px"
	 viewBox="0 0 512 512" style="enable-background:new 0 0 512 512;" xml:space="preserve">
<style type="text/css">
	.st0{fill:#FFFFFF;}
</style>
<path class="st0" d="M496,88h-16V56c0-4.4-3.6-8-8-8H40c-4.4,0-8,3.6-8,8v8H16c-4.4,0-8,3.6-8,8v48c0,4.4,3.6,8,8,8h16v8
	c0,4.4,3.6,8,8,8h32v64c0,13.3,10.7,24,24,24c2.7,0,5.4-0.5,8-1.4V248c0,13.3,10.7,24,24,24s24-10.7,24-24V144h320c4.4,0,8-3.6,8-8
	v-32h8v56H256c-4.4,0-8,3.6-8,8v80h-16c-4.4,0-8,3.6-8,8v192c0,13.2,10.8,24,24,24h16c13.2,0,24-10.8,24-24V256c0-4.4-3.6-8-8-8h-16
	v-72h232c4.4,0,8-3.6,8-8V96C504,91.6,500.4,88,496,88z M24,112V80h8v32H24z M48,128V64h24v64H48z M136,248c0,4.4-3.6,8-8,8
	c-4.4,0-8-3.6-8-8v-80c0-4.4-3.6-8-8-8s-8,3.6-8,8v40c0,4.4-3.6,8-8,8s-8-3.6-8-8V64h336v24H144c-4.4,0-8,3.6-8,8V248z M464,128H152
	v-24h280c4.4,0,8-3.6,8-8V64h24V128z M272,264v184c0,4.4-3.6,8-8,8h-16c-4.4,0-8-3.6-8-8V264H272z"/>
<path class="st0" d="M112,120c-4.4,0-8,3.6-8,8v8c0,4.4,3.6,8,8,8s8-3.6,8-8v-8C120,123.6,116.4,120,112,120z"/>
<path class="st0" d="M128,280c-13.3,0-24,10.7-24,24s10.7,24,24,24s24-10.7,24-24C152,290.8,141.2,280,128,280z M128,312
	c-4.4,0-8-3.6-8-8s3.6-8,8-8c4.4,0,8,3.6,8,8S132.4,312,128,312z"/>
</svg>
