<svg xmlns="http://www.w3.org/2000/svg" viewBox="0 0 183.64 22.31"><defs><style>.cls-1{fill:#7592af;}</style></defs><title>whoweare-light2</title><g id="Layer_2" data-name="Layer 2"><g id="Layer_1-2" data-name="Layer 1"><path class="cls-1" d="M21.56,21.91H16.69l-3-12.37-3,12.37H5.87L0,.4H5.3l3,12L11.4.4h4.82l3,12.16L22.33.4h5.23Zm-4.28-.75H21l5.58-20H22.91L19.15,15.64,15.63,1.15H12L8.33,15.4,4.71,1.15H1l5.46,20h3.71L13.72,6.33Z"/><path class="cls-1" d="M46.19,21.91h-5v-8.5H34.05v8.5H29V.4h5V9.18h7.12V.4h5Zm-4.27-.75h3.52v-20H41.92V9.93H33.3V1.15H29.79v20H33.3v-8.5h8.62Z"/><path class="cls-1" d="M60,22.31a11,11,0,0,1-11.2-11A11.15,11.15,0,0,1,60,0a11,11,0,0,1,8.18,3.6h0A11,11,0,0,1,71,11.26,11,11,0,0,1,60,22.31ZM60,.75A10.28,10.28,0,0,0,49.53,11.26a10.35,10.35,0,0,0,20.69,0A10.07,10.07,0,0,0,60,.75Zm-.15,17.64a6.91,6.91,0,0,1-6.76-7.19C53.13,7.07,56.05,4,59.92,4S66.64,7,66.64,11.3A6.85,6.85,0,0,1,59.89,18.39Zm0-13.69c-3.5,0-6,2.74-6,6.5a6,6,0,1,0,12,.1C65.89,7.48,63.38,4.7,59.92,4.7Z"/><path class="cls-1" d="M102.26,21.91H97.39l-3-12.37-3,12.37H86.57L80.7.4H86l3,12L92.1.4h4.82l3,12.16L103,.4h5.24ZM98,21.16h3.71l5.58-20H103.6L99.85,15.64,96.33,1.15H92.68L89,15.4,85.41,1.15H81.68l5.46,20h3.71L94.41,6.33Z"/><path class="cls-1" d="M121.69,21.91h-12.3V.4h12.3V4.64h-7.28V9h7.28v4.24h-7.28v4.44h7.28Zm-11.55-.75h10.8V18.42h-7.28V12.48h7.28V9.74h-7.28V3.89h7.28V1.15h-10.8Z"/><path class="cls-1" d="M152.22,21.91h-5.46l-1.18-3.58h-7.43l-1.25,3.58h-5.3L139,.4h5.86Zm-4.92-.75h3.87l-6.84-20h-4.78l-6.9,20h3.72l1.24-3.58h8.51Zm-2.05-6.32h-6.8L141.87,4.7Zm-5.76-.75h4.72l-2.35-7Z"/><path class="cls-1" d="M169.77,21.91h-6.09l-5.13-7.42v7.42h-5V.4h6.78c5.34,0,8.28,2.46,8.28,6.91a6.31,6.31,0,0,1-4.67,6.47Zm-5.7-.75h4.24l-5.62-7.82.53-.14a5.61,5.61,0,0,0,4.63-5.89c0-5.09-4.09-6.16-7.53-6.16h-6v20h3.51V12.08Zm-4-10H157.8V3.92h2.68a3.48,3.48,0,0,1,3.8,3.61C164.28,9.81,162.72,11.17,160.11,11.17Zm-1.56-.75h1.56c2.2,0,3.42-1,3.42-2.89a2.72,2.72,0,0,0-3.05-2.86h-1.93Z"/><path class="cls-1" d="M183.64,21.91H171.35V.4h12.29V4.64h-7.28V9h7.28v4.24h-7.28v4.44h7.28Zm-11.54-.75h10.79V18.42h-7.28V12.48h7.28V9.74h-7.28V3.89h7.28V1.15H172.1Z"/></g></g></svg>