<?xml version="1.0" encoding="utf-8"?>
<!-- Generator: Adobe Illustrator 23.0.6, SVG Export Plug-In . SVG Version: 6.00 Build 0)  -->
<svg version="1.1" id="Layer_1" xmlns="http://www.w3.org/2000/svg" xmlns:xlink="http://www.w3.org/1999/xlink" x="0px" y="0px"
	 viewBox="0 0 512 512" style="enable-background:new 0 0 512 512;" xml:space="preserve">
<style type="text/css">
	.st0{fill:#FFFFFF;}
</style>
<path class="st0" d="M485.5,210.4h-47.5c-4.1,0-7.5,3.4-7.5,7.5s3.4,7.5,7.5,7.5h47.5c6.4,0,11.5,5.2,11.5,11.5v18.7h-25.2
	c-4.1,0-7.5,3.4-7.5,7.5c0,4.1,3.4,7.5,7.5,7.5H497V351l-39.1,10.5H301.3c-4.1,0-7.5,3.4-7.5,7.5c0,4.1,3.4,7.5,7.5,7.5h156
	l39.7,17.1v23.3c0,6.4-5.2,11.5-11.5,11.5H123.1c-6.4,0-11.5-5.2-11.5-11.5v-69.2h87.1c4.1,0,7.5-3.4,7.5-7.5c0-4.1-3.4-7.5-7.5-7.5
	h-87.1v-8.2c0-4.1-3.4-7.5-7.5-7.5c-4.1,0-7.5,3.4-7.5,7.5v92.4c0,14.6,11.9,26.5,26.5,26.5h362.4c14.6,0,26.5-11.9,26.5-26.5v-28.2
	c0-3-1.8-5.7-4.5-6.9l-25.8-11.1l24.8-6.6c3.3-0.9,5.6-3.9,5.6-7.2V236.9C512,222.3,500.1,210.4,485.5,210.4z"/>
<path class="st0" d="M415.4,275.5v-180c0-14.6-11.9-26.5-26.5-26.5H288.5c-0.1,0-0.2,0-0.2,0H167.1c-4.1,0-7.5,3.4-7.5,7.5
	c0,4.1,3.4,7.5,7.5,7.5h49.4c6.2,8.3,13.2,19.8,16,31.3c2.9,11.9,0.4,21-7.4,27.8c-11.2,9.8-27.6,10-36.3,9.3
	c-19-1.6-38.4-7-57.7-16.1c-10.5-4.9-20.8-10.6-31.7-16.6C74,105.7,48,91.4,19.2,86.6c2-1.6,4.5-2.6,7.3-2.6h110.5
	c4.1,0,7.5-3.4,7.5-7.5c0-4.1-3.4-7.5-7.5-7.5H26.5C11.9,69,0,80.9,0,95.5v108.4v0.3V256v0.3v19.2C0,290.1,11.9,302,26.5,302h362.4
	C403.5,302,415.4,290.1,415.4,275.5z M400.4,95.5v81.6c-6.7,8.6-14.3,16.5-22.6,23.7c-30.1,26.1-69.7,42.7-111.4,46.6
	c-64.3,6-131.8-17.9-198.3-13.5c-19.1,1.3-37.2,5.1-53.2,11v-34.8c6.3-1.2,12.7-2.3,19-3.2c53.1-7.5,106.7-3.8,156.7,1.3l2.4,0.3
	c15.3,1.6,31.1,3.2,46.9,1.7c19.6-1.9,36.2-8.5,48.2-19.2c24-21.5,26.6-55.8,20.9-80.7c-1.9-8.5-4.9-17.2-8.9-26.3h88.6
	C395.3,84,400.4,89.2,400.4,95.5z M124.6,149.8c20.9,9.9,42.1,15.8,62.8,17.5c2.5,0.2,5,0.3,7.5,0.3c16.1,0,30.1-4.6,40-13.3
	c18.4-16.1,18.2-41.3-0.2-70.4h49.1c5.2,10.5,8.8,20.2,10.9,29.6c5.9,26-0.5,52-16.3,66.2c-12.1,10.8-28.2,14.4-39.6,15.4
	c-14.4,1.4-29.4-0.2-43.9-1.7l-2.5-0.3c-50.9-5.2-105.6-8.9-160.4-1.2c-5.7,0.8-11.3,1.7-16.9,2.8v-93.7c26.9,4,52.4,18,77.1,31.6
	C102.7,138.6,113.7,144.7,124.6,149.8z M15,275.5V261c15.7-6.7,34.4-10.8,54.2-12.2c65.5-4.4,131,19.8,198.7,13.5
	c44.8-4.2,87.4-22.1,119.8-50.2c4.4-3.9,8.7-7.9,12.8-12.2v75.5c0,6.4-5.2,11.5-11.5,11.5H26.5C20.2,287,15,281.8,15,275.5z"/>
</svg>
